<?xml version="1.0" encoding="utf-8"?>
<!-- Generator: Adobe Illustrator 25.0.1, SVG Export Plug-In . SVG Version: 6.00 Build 0)  -->
<svg version="1.1" id="Layer_1" xmlns="http://www.w3.org/2000/svg" xmlns:xlink="http://www.w3.org/1999/xlink" x="0px" y="0px"
	 viewBox="0 0 368.15 386.15" style="enable-background:new 0 0 368.15 386.15;" xml:space="preserve">
<style type="text/css">
	.st0{fill:#FF0200;}
</style>
<g>
	<g>
		<path class="st0" d="M368.15,177.54c0,36.46,0,72.92,0,109.38c0,4.55-0.07,4.62-4.54,4.62c-11.61,0-23.22,0-34.83-0.01
			c-3.75,0-4.23-0.48-4.25-4.16c-0.02-4.24-0.09-8.49,0.03-12.72c0.06-1.9-0.7-2.49-2.45-2.48c-12.82,0.03-25.64,0.06-38.46-0.01
			c-2.96-0.02-2.52,1.89-2.52,3.68c0.01,33.93,0.02,67.87,0.02,101.8c0,9.08,0.38,7.57-7.61,7.64c-10.3,0.08-20.59,0.02-30.89,0.02
			c-4.15,0-4.62-0.46-4.62-4.75c-0.01-34.74-0.01-69.49-0.01-104.23c0-4.12,0-4.13-4.11-4.13c-11.1,0-22.21,0.07-33.31-0.06
			c-2.6-0.03-3.55,0.64-3.39,3.38c0.24,4.23,0,8.48,0.08,12.72c0.05,2.68-1.15,3.88-3.81,3.88c-12.21-0.02-24.43-0.02-36.64,0
			c-1.87,0-3.03-0.53-3.34-2.62c-0.19-1.29-0.45-2.55-0.45-3.86c0.01-72.31,0.01-144.63,0.01-216.94c0-4.87,0.52-5.38,5.32-5.38
			c25.24-0.01,50.47-0.01,75.71-0.02c3.92,0,3.93-0.01,3.93-4.08c0-17.27,0.06-34.53-0.06-51.8c-0.02-3.06,0.97-4.03,4.01-3.99
			c11.81,0.14,23.62,0.13,35.43,0c2.9-0.03,3.81,0.9,3.8,3.8c-0.11,17.17-0.05,34.34-0.06,51.51c0,4.57-0.02,4.57,4.38,4.57
			c26.24,0,52.49-0.01,78.73-0.01c3.7,0,3.87,0.16,3.87,3.96C368.16,104.01,368.15,140.77,368.15,177.54z M303.01,105.58
			c-6.26,0-12.52,0.04-18.78-0.02c-2.24-0.02-3.2,0.71-3.17,3.18c0.11,11.92,0.08,23.84,0.01,35.76c-0.01,2.15,0.66,3.21,2.9,3.2
			c12.52-0.03,25.04-0.02,37.56,0c2.23,0,3.13-0.85,3.1-3.25c-0.11-11.92-0.11-23.84,0.01-35.76c0.03-2.47-0.86-3.17-3.15-3.14
			C315.33,105.63,309.17,105.58,303.01,105.58z M302.88,229.64c6.36,0,12.72-0.04,19.07,0.02c1.82,0.02,2.69-0.38,2.67-2.5
			c-0.09-12.12-0.08-24.23,0-36.35c0.01-1.86-0.62-2.53-2.4-2.53c-12.92,0.02-25.84,0.03-38.76,0c-1.78,0-2.43,0.66-2.42,2.53
			c0.08,12.02,0.11,24.03,0,36.05c-0.02,2.41,0.96,2.85,3.06,2.82C290.37,229.58,296.62,229.64,302.88,229.64z M238.15,126.69
			c0-6.06-0.07-12.12,0.04-18.17c0.04-2.26-0.8-3-3.01-2.98c-11.6,0.07-23.21,0.09-34.81-0.01c-2.57-0.02-3.22,0.93-3.2,3.39
			c0.12,11.71,0.14,23.43-0.01,35.14c-0.04,2.85,1.04,3.68,3.65,3.67c11.4-0.06,22.81-0.08,34.21,0.02c2.41,0.02,3.2-0.86,3.16-3.18
			C238.09,138.61,238.15,132.65,238.15,126.69z M197.22,208.82c0,5.95,0.12,11.9-0.06,17.84c-0.08,2.49,0.82,3.03,3.11,3.01
			c11.39-0.09,22.77-0.13,34.16,0.02c2.85,0.04,3.83-0.69,3.79-3.67c-0.16-11.78-0.08-23.57-0.03-35.35
			c0.01-1.64-0.47-2.41-2.21-2.41c-12.09,0.03-24.18,0.03-36.28,0.01c-1.92,0-2.57,0.71-2.53,2.7
			C197.3,196.93,197.22,202.88,197.22,208.82z"/>
		<path class="st0" d="M106.31,55.62c10.8-0.07,21.6-0.04,32.41-0.03c3.61,0,4.61,0.76,4.66,4.37c0.12,10.2,0.12,20.4,0,30.61
			c-0.04,3.16-1.8,5.95-2.89,8.85c-3.57,9.48-7.35,18.89-11.85,27.97c-7.32,14.76-15.36,29.13-24.86,42.63
			c-1.56,2.21-2.94,4.55-4.43,6.81c-1.37,2.08-0.71,3.54,1.27,4.74c9.27,5.64,18.17,11.85,26.85,18.35
			c7.4,5.54,14.32,11.68,21.39,17.62c2.24,1.88,1.52,3.83,0.2,5.88c-5.96,9.2-11.91,18.41-17.81,27.65
			c-3.35,5.25-3.29,5.27-7.62,0.79c-7.06-7.31-14.1-14.65-21.8-21.31c-0.84-0.72-1.61-1.8-2.82-1.39c-1.49,0.5-0.71,1.92-0.71,2.89
			c-0.04,24.95-0.03,49.9-0.03,74.85c0,24.75,0,49.5,0,74.24c0,4.77-0.22,5-4.87,5c-11.31,0-22.61,0.01-33.92,0.01
			c-4.43,0-4.65-0.21-4.65-4.61c0-48.49,0-96.97,0-145.46c0-0.71,0.06-1.42-0.02-2.12c-0.1-0.86,0.5-2.07-0.46-2.51
			c-1.14-0.53-1.7,0.73-2.36,1.42c-11.25,11.84-23.42,22.73-35.33,33.88c-2.31,2.17-3.59,1.69-4.5-1.37
			c-3.9-13.07-7.84-26.14-11.82-39.19c-0.59-1.93-0.47-3.46,1.13-4.9c4.77-4.33,9.53-8.68,14.17-13.15
			c14.52-13.96,28.38-28.52,41.08-44.2c11.35-14.01,21.71-28.67,30.59-44.36c3.45-6.09,6.44-12.44,9.64-18.68
			c0.88-1.71,0.27-2.43-1.56-2.41c-2.12,0.02-4.24-0.01-6.36-0.01c-25.34,0.01-50.68,0.02-76.02,0.02l-4.2-0.02v-4.06
			c-0.02-11.62-0.03-23.23,0-34.85v-3.96l4.06-0.02c14.54,0,29.08,0,43.61,0c3.68,0,3.99-0.32,2.7-3.76
			c-3.45-9.2-6.91-18.39-11.12-27.27c-1.5-3.17-2.69-6.49-4.12-9.7l-1.15-2.92l2.96-0.87c7.46-2.04,14.9-4.12,22.34-6.22
			c4.14-1.17,8.3-2.29,12.38-3.64L84.36,0l1.17,3.47c2.2,6.03,4.36,12.08,6.44,18.15c2.92,8.52,5.77,17.06,8.59,25.61
			c0.6,1.81,1.17,3.69,1.51,5.5l0.46,2.9L106.31,55.62z"/>
	</g>
</g>
</svg>
